<?xml version="1.0" encoding="UTF-8"?>
<svg xmlns="http://www.w3.org/2000/svg" xmlns:xlink="http://www.w3.org/1999/xlink" width="964.12pt" height="368pt" viewBox="0 0 964.12 368" version="1.1">
<defs>
<clipPath id="clip1">
  <path d="M 556 0 L 964.121094 0 L 964.121094 237 L 556 237 Z M 556 0 "/>
</clipPath>
</defs>
<g id="surface1">
<path style=" stroke:none;fill-rule:nonzero;fill:rgb(9.399414%,27.099609%,57.998657%);fill-opacity:1;" d="M 392.390625 238.160156 L 190.097656 238.160156 L 423.953125 108.320313 Z M 823.515625 236.007813 L 702.285156 236.007813 C 702.285156 236.007813 578.183594 239.234375 558.097656 162.480469 C 553.011719 139.84375 567.539063 101.105469 567.539063 101.105469 L 588.941406 16.5 L 416.0625 16.5 L 17.933594 231.703125 L 0 306.308594 L 376.609375 306.308594 L 359.390625 368 L 512.902344 368 C 512.902344 368 535.140625 271.875 623.375 271.875 C 711.609375 271.875 900.273438 271.15625 900.273438 271.15625 "/>
<g clip-path="url(#clip1)" clip-rule="nonzero">
<path style=" stroke:none;fill-rule:nonzero;fill:rgb(19.198608%,65.899658%,21.199036%);fill-opacity:1;" d="M 964.117188 0 L 951.921875 48.78125 L 757.519531 48.78125 C 757.519531 48.78125 677.179688 45.910156 664.980469 122.667969 C 654.9375 192.25 708.742188 185.433594 718.066406 185.792969 C 727.390625 186.152344 823.15625 185.835938 823.15625 185.835938 L 831.40625 143.109375 L 722.011719 143.109375 L 734.925781 92.980469 L 942.515625 92.980469 L 914.539063 203.324219 L 823.515625 236.007813 L 681.59375 236.007813 C 681.59375 236.007813 507.285156 233.109375 569.691406 92.597656 C 605.199219 20.949219 710.105469 0 743.460938 0 "/>
</g>
<path style=" stroke:none;fill-rule:nonzero;fill:rgb(49.798584%,74.099731%,36.499023%);fill-opacity:1;" d="M 914.539063 203.324219 L 823.515625 236.007813 L 900.273438 271.15625 "/>
<path style=" stroke:none;fill-rule:nonzero;fill:rgb(42.698669%,52.198792%,53.29895%);fill-opacity:1;" d="M 609.984375 292.320313 L 581.050781 292.320313 L 553.074219 368 L 645.613281 368 L 652.429688 350.425781 L 588.824219 350.425781 "/>
<path style=" stroke:none;fill-rule:nonzero;fill:rgb(42.698669%,52.198792%,53.29895%);fill-opacity:1;" d="M 771.867188 292.320313 L 766.128906 307.382813 L 730.261719 307.382813 L 710.175781 368 L 677.535156 368 L 701.210938 306.667969 L 668.570313 306.667969 L 674.308594 292.320313 "/>
<path style=" stroke:none;fill-rule:nonzero;fill:rgb(42.698669%,52.198792%,53.29895%);fill-opacity:1;" d="M 887.71875 292.320313 L 786.574219 292.320313 L 780.117188 307.382813 L 883.414063 307.382813 Z M 887.71875 292.320313 "/>
<path style=" stroke:none;fill-rule:nonzero;fill:rgb(42.698669%,52.198792%,53.29895%);fill-opacity:1;" d="M 809.171875 313.839844 L 776.53125 313.839844 L 755.726563 368 L 860.816406 368 L 865.839844 349.707031 L 793.386719 349.707031 L 798.050781 338.589844 L 849.339844 338.589844 L 857.589844 324.601563 L 804.507813 324.601563 "/>
</g>
</svg>
