<?xml version="1.0" encoding="UTF-8"?>
<svg xmlns="http://www.w3.org/2000/svg" xmlns:xlink="http://www.w3.org/1999/xlink" width="950.05pt" height="218.16pt" viewBox="0 0 950.05 218.16" version="1.1">
<defs>
<clipPath id="clip1">
  <path d="M 237 64 L 535 64 L 535 218.160156 L 237 218.160156 Z M 237 64 "/>
</clipPath>
<clipPath id="clip2">
  <path d="M 934 167 L 950.050781 167 L 950.050781 216 L 934 216 Z M 934 167 "/>
</clipPath>
</defs>
<g id="surface1">
<path style=" stroke:none;fill-rule:nonzero;fill:rgb(36.898804%,20.799255%,54.499817%);fill-opacity:1;" d="M 19.179688 -0.00390625 L 65.234375 -0.00390625 C 65.234375 -0.00390625 93.042969 8.6875 80.007813 40.84375 C 66.972656 72.996094 25.261719 59.089844 19.179688 53.007813 C 13.097656 46.925781 12.226563 22.59375 19.179688 -0.00390625 "/>
<path style=" stroke:none;fill-rule:nonzero;fill:rgb(36.898804%,20.799255%,54.499817%);fill-opacity:1;" d="M 72.1875 83.421875 L 61.761719 210.296875 L 18.3125 210.296875 C 18.3125 210.296875 0.929688 201.75 0.0625 189.078125 C -0.808594 176.40625 7.882813 95.589844 7.882813 95.589844 C 7.882813 95.589844 9.621094 68.648438 45.25 67.78125 C 80.878906 66.910156 72.1875 83.421875 72.1875 83.421875 "/>
<path style=" stroke:none;fill-rule:nonzero;fill:rgb(36.898804%,20.799255%,54.499817%);fill-opacity:1;" d="M 152.726563 162.953125 C 139.691406 162.953125 129.089844 152.351563 129.089844 139.316406 C 129.089844 126.28125 139.691406 115.714844 152.726563 115.714844 C 165.761719 115.714844 176.328125 126.28125 176.328125 139.316406 C 176.328125 152.351563 165.761719 162.953125 152.726563 162.953125 M 227.742188 2.1875 L 179.074219 -0.00390625 L 172.125 69.519531 C 172.125 69.519531 148.226563 67.746094 138.449219 69.734375 C 127.316406 72 80.007813 89.089844 79.59375 145.121094 C 79.382813 171.402344 90.714844 187.355469 102.847656 196.914063 C 113.796875 205.535156 127.457031 210.125 141.394531 210.75 L 152.972656 211.304688 C 153.25 211.304688 153.5625 211.339844 153.839844 211.339844 C 155.890625 211.339844 157.941406 210.992188 159.851563 210.367188 C 167.085938 208.003906 174.941406 208.488281 181.820313 211.6875 L 182.03125 211.792969 C 183.316406 212.417969 184.742188 212.765625 186.203125 212.835938 L 225.585938 214.640625 C 225.585938 214.640625 243.382813 46.472656 244.253906 24.78125 C 245.121094 3.023438 227.742188 2.1875 227.742188 2.1875 "/>
<g clip-path="url(#clip1)" clip-rule="nonzero">
<path style=" stroke:none;fill-rule:nonzero;fill:rgb(36.898804%,20.799255%,54.499817%);fill-opacity:1;" d="M 436.304688 160.765625 C 427.613281 156.699219 416.039063 140.8125 416.039063 140.8125 C 416.039063 140.8125 456.566406 95.308594 479.164063 135.839844 C 479.164063 175.816406 444.992188 164.832031 436.304688 160.765625 M 332.613281 158.433594 C 321.003906 163.648438 282.210938 176.40625 287.425781 138.167969 C 316.972656 87.765625 352.878906 142.792969 352.878906 142.792969 C 352.878906 142.792969 344.1875 153.222656 332.613281 158.433594 M 458.894531 64.027344 C 423.546875 63.433594 389.378906 99.34375 389.378906 99.34375 C 343.039063 48.386719 291.457031 69.796875 274.078125 81.40625 C 256.695313 92.980469 236.5 109.042969 237.578125 152.664063 C 238.691406 196.289063 272.339844 219.265625 310.019531 218.117188 C 347.664063 216.972656 381.277344 186.242188 381.277344 186.242188 C 398.066406 212.3125 433.972656 218.117188 447.601563 218.117188 C 461.226563 218.117188 534.222656 205.363281 534.222656 142.132813 C 534.222656 78.9375 494.246094 64.582031 458.894531 64.027344 "/>
</g>
<path style=" stroke:none;fill-rule:nonzero;fill:rgb(36.898804%,20.799255%,54.499817%);fill-opacity:1;" d="M 608.367188 214.6875 L 609.484375 143.4375 C 609.535156 140.222656 610.292969 137.011719 611.984375 134.28125 C 614.015625 131.011719 617.636719 127.742188 624.007813 127.742188 C 636.753906 127.742188 639.648438 131.21875 640.230469 135.273438 C 640.808594 139.328125 640.230469 193.207031 640.230469 193.207031 C 640.230469 193.207031 639.648438 214.6875 657.320313 214.6875 C 667.460938 214.6875 703.378906 214.640625 703.378906 214.640625 C 703.378906 214.640625 707.722656 216.378906 707.722656 194.222656 C 707.722656 178.621094 708.585938 157.488281 709.09375 146.347656 C 709.558594 136.210938 717.691406 127.894531 727.839844 127.746094 C 727.988281 127.742188 728.136719 127.742188 728.289063 127.742188 C 743.351563 127.742188 741.902344 140.335938 741.902344 142.148438 C 741.902344 143.964844 741.941406 195.523438 741.941406 195.523438 C 741.941406 195.523438 739.152344 214.6875 758.125 214.675781 C 776.953125 214.660156 804.183594 214.675781 804.183594 214.675781 L 804.183594 127.328125 C 804.183594 109.25 797.125 91.625 783.785156 79.421875 C 774.46875 70.894531 761.3125 64.058594 743.0625 64.007813 C 694.398438 63.871094 679.1875 84.726563 679.1875 84.726563 C 679.1875 84.726563 658.769531 62.132813 627.484375 62.132813 C 596.199219 62.132813 565.351563 88.636719 557.964844 102.105469 C 550.578125 115.574219 545.363281 127.742188 543.625 146.859375 C 541.886719 165.976563 541.886719 189.078125 541.886719 189.078125 C 541.886719 189.078125 540.726563 214.640625 562.742188 214.640625 C 584.074219 214.640625 608.367188 214.6875 608.367188 214.6875 "/>
<path style=" stroke:none;fill-rule:nonzero;fill:rgb(36.898804%,20.799255%,54.499817%);fill-opacity:1;" d="M 834.699219 196.523438 L 850.339844 196.523438 L 848.503906 184.65625 C 847.792969 179.949219 847.351563 176.027344 847.179688 172.886719 C 846.105469 175.59375 844.535156 178.808594 842.472656 182.527344 Z M 817.480469 215.003906 L 844.277344 167.726563 L 851.726563 167.726563 L 859.53125 215.003906 L 853.402344 215.003906 L 851.113281 201.394531 L 831.992188 201.394531 L 824.414063 215.003906 "/>
<path style=" stroke:none;fill-rule:nonzero;fill:rgb(36.898804%,20.799255%,54.499817%);fill-opacity:1;" d="M 872.140625 200.652344 C 872.140625 203.039063 872.375 204.921875 872.847656 206.296875 C 873.320313 207.671875 874.128906 208.816406 875.269531 209.730469 C 876.40625 210.644531 877.773438 211.101563 879.363281 211.101563 C 882.007813 211.101563 884.40625 209.726563 886.554688 206.972656 C 889.433594 203.316406 890.875 198.804688 890.875 193.429688 C 890.875 190.71875 890.164063 188.601563 888.746094 187.074219 C 887.328125 185.550781 885.542969 184.789063 883.394531 184.789063 C 881.996094 184.789063 880.722656 185.097656 879.574219 185.722656 C 878.421875 186.34375 877.285156 187.402344 876.15625 188.898438 C 875.027344 190.390625 874.074219 192.289063 873.300781 194.589844 C 872.527344 196.890625 872.140625 198.910156 872.140625 200.652344 M 888.136719 210.039063 C 884.800781 213.863281 881.320313 215.777344 877.6875 215.777344 C 874.441406 215.777344 871.738281 214.578125 869.574219 212.179688 C 867.414063 209.785156 866.335938 206.308594 866.335938 201.75 C 866.335938 197.578125 867.191406 193.765625 868.898438 190.316406 C 870.609375 186.867188 872.746094 184.28125 875.316406 182.5625 C 877.886719 180.839844 880.460938 179.980469 883.039063 179.980469 C 887.296875 179.980469 890.511719 182.035156 892.683594 186.140625 L 896.550781 167.726563 L 902.355469 167.726563 L 892.488281 215.003906 L 887.101563 215.003906 "/>
<path style=" stroke:none;fill-rule:nonzero;fill:rgb(36.898804%,20.799255%,54.499817%);fill-opacity:1;" d="M 902.324219 203.296875 L 908.160156 202.941406 C 908.160156 204.617188 908.421875 206.050781 908.933594 207.230469 C 909.449219 208.414063 910.402344 209.382813 911.789063 210.132813 C 913.175781 210.886719 914.792969 211.261719 916.644531 211.261719 C 919.222656 211.261719 921.15625 210.746094 922.445313 209.714844 C 923.738281 208.683594 924.382813 207.46875 924.382813 206.070313 C 924.382813 205.0625 923.996094 204.105469 923.222656 203.199219 C 922.425781 202.296875 920.484375 201.183594 917.398438 199.863281 C 914.3125 198.539063 912.34375 197.609375 911.484375 197.074219 C 910.042969 196.191406 908.957031 195.152344 908.226563 193.960938 C 907.496094 192.769531 907.128906 191.398438 907.128906 189.851563 C 907.128906 187.140625 908.203125 184.820313 910.355469 182.882813 C 912.503906 180.949219 915.515625 179.980469 919.382813 179.980469 C 923.683594 179.980469 926.957031 180.976563 929.203125 182.964844 C 931.449219 184.953125 932.617188 187.570313 932.703125 190.816406 L 926.992188 191.203125 C 926.90625 189.140625 926.179688 187.507813 924.800781 186.304688 C 923.425781 185.097656 921.480469 184.496094 918.964844 184.496094 C 916.941406 184.496094 915.375 184.957031 914.257813 185.882813 C 913.136719 186.808594 912.578125 187.808594 912.578125 188.882813 C 912.578125 189.957031 913.0625 190.902344 914.03125 191.71875 C 914.675781 192.277344 916.34375 193.140625 919.027344 194.300781 C 923.5 196.234375 926.316406 197.761719 927.476563 198.878906 C 929.328125 200.664063 930.253906 202.835938 930.253906 205.394531 C 930.253906 207.089844 929.730469 208.757813 928.6875 210.390625 C 927.644531 212.027344 926.054688 213.332031 923.914063 214.308594 C 921.773438 215.289063 919.253906 215.777344 916.351563 215.777344 C 912.394531 215.777344 909.03125 214.800781 906.257813 212.84375 C 903.484375 210.886719 902.175781 207.703125 902.324219 203.296875 "/>
<g clip-path="url(#clip2)" clip-rule="nonzero">
<path style=" stroke:none;fill-rule:nonzero;fill:rgb(36.898804%,20.799255%,54.499817%);fill-opacity:1;" d="M 934.347656 215.003906 L 944.214844 167.726563 L 950.050781 167.726563 L 940.183594 215.003906 Z M 934.347656 215.003906 "/>
</g>
</g>
</svg>
