<?xml version="1.0" encoding="UTF-8"?>
<svg xmlns="http://www.w3.org/2000/svg" xmlns:xlink="http://www.w3.org/1999/xlink" width="401.06pt" height="414.93pt" viewBox="0 0 401.06 414.93" version="1.1">
<defs>
<clipPath id="clip1">
  <path d="M 0 352 L 63 352 L 63 414.929688 L 0 414.929688 Z M 0 352 "/>
</clipPath>
<clipPath id="clip2">
  <path d="M 56 352 L 120 352 L 120 414.929688 L 56 414.929688 Z M 56 352 "/>
</clipPath>
<clipPath id="clip3">
  <path d="M 281 352 L 345 352 L 345 414.929688 L 281 414.929688 Z M 281 352 "/>
</clipPath>
<clipPath id="clip4">
  <path d="M 338 352 L 401.058594 352 L 401.058594 414.929688 L 338 414.929688 Z M 338 352 "/>
</clipPath>
<clipPath id="clip5">
  <path d="M 112 352 L 176 352 L 176 414.929688 L 112 414.929688 Z M 112 352 "/>
</clipPath>
<clipPath id="clip6">
  <path d="M 169 352 L 232 352 L 232 414.929688 L 169 414.929688 Z M 169 352 "/>
</clipPath>
<clipPath id="clip7">
  <path d="M 225 352 L 289 352 L 289 414.929688 L 225 414.929688 Z M 225 352 "/>
</clipPath>
</defs>
<g id="surface1">
<path style=" stroke:none;fill-rule:nonzero;fill:rgb(88.999939%,13.699341%,15.699768%);fill-opacity:1;" d="M 289.917969 88.972656 C 295.21875 88.972656 300.316406 89.820313 305.121094 91.347656 L 305.121094 119.007813 L 304.371094 118.320313 C 303.570313 117.585938 302.609375 116.902344 301.515625 116.257813 C 300.40625 115.605469 299.203125 115.035156 297.925781 114.539063 C 296.664063 114.054688 295.335938 113.644531 293.972656 113.347656 C 292.625 113.035156 291.265625 112.882813 289.917969 112.882813 C 286.394531 112.882813 283.070313 113.546875 280.03125 114.863281 C 276.972656 116.1875 274.277344 117.992188 272.019531 120.234375 C 269.773438 122.472656 267.964844 125.152344 266.640625 128.183594 C 265.308594 131.230469 264.644531 134.546875 264.644531 138.042969 C 264.644531 141.535156 265.308594 144.851563 266.640625 147.882813 C 267.964844 150.917969 269.773438 153.601563 272.019531 155.84375 C 274.277344 158.078125 276.972656 159.894531 280.03125 161.207031 C 283.070313 162.53125 286.394531 163.191406 289.917969 163.191406 C 293.4375 163.191406 296.765625 162.535156 299.820313 161.253906 C 302.863281 159.972656 305.566406 158.171875 307.839844 155.933594 C 310.136719 153.699219 311.949219 151.019531 313.226563 147.980469 C 314.527344 144.949219 315.183594 141.601563 315.183594 138.042969 L 315.183594 95.863281 C 329.773438 104.472656 339.5625 120.296875 339.5625 138.410156 C 339.5625 165.703125 317.351563 187.835938 289.917969 187.835938 C 262.484375 187.835938 240.253906 165.703125 240.253906 138.410156 C 240.253906 111.113281 262.484375 88.972656 289.917969 88.972656 "/>
<path style=" stroke:none;fill-rule:nonzero;fill:rgb(88.999939%,13.699341%,15.699768%);fill-opacity:1;" d="M 300.636719 148.714844 C 299.273438 150.0625 297.660156 151.148438 295.8125 151.945313 C 293.972656 152.757813 291.992188 153.167969 289.917969 153.167969 C 287.839844 153.167969 285.867188 152.757813 284.019531 151.945313 C 282.175781 151.148438 280.5625 150.0625 279.195313 148.714844 C 277.835938 147.359375 276.738281 145.742188 275.941406 143.90625 C 275.128906 142.074219 274.710938 140.097656 274.710938 138.042969 C 274.710938 135.976563 275.128906 134.007813 275.941406 132.164063 C 276.738281 130.328125 277.835938 128.726563 279.195313 127.367188 C 280.5625 126.023438 282.175781 124.933594 284.019531 124.128906 C 287.710938 122.511719 292.121094 122.511719 295.8125 124.128906 C 297.660156 124.933594 299.273438 126.023438 300.636719 127.367188 C 301.996094 128.726563 303.09375 130.335938 303.886719 132.164063 C 304.703125 134 305.101563 135.976563 305.101563 138.042969 C 305.101563 140.101563 304.703125 142.074219 303.886719 143.90625 C 303.09375 145.742188 301.996094 147.359375 300.636719 148.714844 "/>
<path style=" stroke:none;fill-rule:nonzero;fill:rgb(100%,100%,100%);fill-opacity:1;" d="M 305.121094 138.046875 C 305.121094 140.097656 304.703125 142.074219 303.886719 143.90625 C 303.09375 145.742188 301.996094 147.359375 300.636719 148.699219 C 299.273438 150.058594 297.660156 151.148438 295.8125 151.945313 C 293.972656 152.757813 291.988281 153.164063 289.917969 153.164063 C 287.839844 153.164063 285.863281 152.757813 284.015625 151.945313 C 282.175781 151.148438 280.558594 150.058594 279.191406 148.699219 C 277.835938 147.359375 276.734375 145.742188 275.941406 143.90625 C 275.128906 142.074219 274.714844 140.097656 274.714844 138.046875 C 274.714844 135.980469 275.128906 134 275.941406 132.164063 C 276.734375 130.332031 277.835938 128.726563 279.191406 127.367188 C 280.558594 126.023438 282.175781 124.933594 284.015625 124.128906 C 287.710938 122.511719 292.121094 122.511719 295.8125 124.128906 C 297.660156 124.933594 299.285156 126.023438 300.636719 127.367188 C 301.996094 128.726563 303.09375 130.335938 303.886719 132.164063 C 304.703125 134 305.121094 135.980469 305.121094 138.046875 M 315.1875 138.046875 L 315.1875 95.863281 C 312.03125 94 308.660156 92.480469 305.121094 91.339844 L 305.121094 119.011719 L 304.371094 118.320313 C 303.570313 117.597656 302.609375 116.886719 301.515625 116.261719 C 300.40625 115.617188 299.203125 115.039063 297.941406 114.539063 C 296.664063 114.050781 295.335938 113.648438 293.972656 113.347656 C 292.625 113.039063 291.265625 112.882813 289.917969 112.882813 C 286.394531 112.882813 283.070313 113.550781 280.03125 114.867188 C 276.972656 116.1875 274.277344 117.992188 272.019531 120.234375 C 269.773438 122.472656 267.964844 125.152344 266.640625 128.1875 C 265.308594 131.230469 264.644531 134.550781 264.644531 138.046875 C 264.644531 141.535156 265.308594 144.851563 266.640625 147.886719 C 267.964844 150.917969 269.773438 153.609375 272.019531 155.839844 C 274.277344 158.078125 276.972656 159.898438 280.03125 161.207031 C 283.070313 162.53125 286.394531 163.191406 289.917969 163.191406 C 293.4375 163.191406 296.765625 162.546875 299.820313 161.253906 C 302.875 159.96875 305.566406 158.1875 307.839844 155.941406 C 310.136719 153.699219 311.949219 151.023438 313.226563 147.980469 C 314.542969 144.949219 315.1875 141.601563 315.1875 138.046875 "/>
<path style=" stroke:none;fill-rule:nonzero;fill:rgb(88.999939%,13.699341%,15.699768%);fill-opacity:1;" d="M 200.527344 0.00390625 C 173.113281 0.00390625 150.867188 22.132813 150.867188 49.433594 C 150.867188 76.734375 173.113281 98.867188 200.527344 98.867188 C 227.964844 98.867188 250.195313 76.734375 250.195313 49.433594 C 250.195313 22.132813 227.964844 0.00390625 200.527344 0.00390625 "/>
<path style=" stroke:none;fill-rule:nonzero;fill:rgb(100%,100%,100%);fill-opacity:1;" d="M 214.5 55.324219 C 213.710938 57.160156 212.605469 58.78125 211.25 60.125 C 209.894531 61.484375 208.269531 62.574219 206.421875 63.386719 C 204.578125 64.199219 202.601563 64.609375 200.527344 64.609375 C 198.46875 64.609375 196.472656 64.199219 194.636719 63.386719 C 192.804688 62.574219 191.171875 61.484375 189.808594 60.125 C 188.464844 58.769531 187.371094 57.160156 186.554688 55.324219 C 185.742188 53.480469 185.339844 51.503906 185.339844 49.429688 C 185.339844 47.367188 185.742188 45.375 186.554688 43.542969 C 187.371094 41.699219 188.464844 40.089844 189.808594 38.734375 C 191.171875 37.378906 192.804688 36.28125 194.636719 35.476563 C 196.472656 34.667969 198.46875 34.265625 200.527344 34.265625 C 202.601563 34.265625 204.578125 34.667969 206.421875 35.476563 C 208.269531 36.28125 209.894531 37.378906 211.25 38.734375 C 212.605469 40.089844 213.710938 41.699219 214.5 43.542969 C 216.128906 47.230469 216.128906 51.636719 214.5 55.324219 M 218.425781 31.628906 C 216.167969 29.351563 213.476563 27.53125 210.433594 26.210938 C 207.375 24.890625 204.054688 24.230469 200.527344 24.230469 C 197.019531 24.230469 193.6875 24.890625 190.644531 26.210938 C 187.585938 27.535156 184.890625 29.355469 182.652344 31.628906 C 180.386719 33.890625 178.578125 36.582031 177.25 39.640625 C 175.941406 42.671875 175.257813 45.976563 175.257813 49.476563 C 175.257813 52.976563 175.941406 56.292969 177.25 59.324219 C 178.578125 62.371094 180.386719 65.050781 182.652344 67.285156 C 184.890625 69.523438 187.585938 71.324219 190.644531 72.648438 C 193.703125 73.964844 197.019531 74.636719 200.527344 74.636719 C 204.054688 74.636719 207.375 73.964844 210.433594 72.648438 C 213.476563 71.324219 216.167969 69.523438 218.425781 67.285156 C 220.671875 65.039063 222.480469 62.371094 223.808594 59.324219 C 225.136719 56.28125 225.800781 52.976563 225.800781 49.476563 C 225.800781 45.976563 225.136719 42.671875 223.808594 39.640625 C 222.480469 36.59375 220.671875 33.890625 218.425781 31.628906 "/>
<path style=" stroke:none;fill-rule:nonzero;fill:rgb(88.999939%,13.699341%,15.699768%);fill-opacity:1;" d="M 289.917969 0.00390625 C 262.484375 0.00390625 240.253906 22.132813 240.253906 49.433594 C 240.253906 76.734375 262.484375 98.867188 289.917969 98.867188 C 317.335938 98.867188 339.5625 76.734375 339.5625 49.433594 C 339.5625 22.132813 317.335938 0.00390625 289.917969 0.00390625 "/>
<path style=" stroke:none;fill-rule:nonzero;fill:rgb(100%,100%,100%);fill-opacity:1;" d="M 303.886719 55.324219 C 303.074219 57.160156 301.980469 58.78125 300.636719 60.125 C 299.273438 61.484375 297.660156 62.574219 295.8125 63.386719 C 293.972656 64.199219 291.992188 64.609375 289.917969 64.609375 C 287.839844 64.609375 285.867188 64.199219 284.019531 63.386719 C 282.175781 62.574219 280.542969 61.484375 279.195313 60.125 C 277.835938 58.769531 276.738281 57.160156 275.941406 55.324219 C 275.128906 53.480469 274.714844 51.503906 274.714844 49.429688 C 274.714844 47.367188 275.128906 45.375 275.941406 43.542969 C 276.738281 41.699219 277.835938 40.089844 279.195313 38.734375 C 280.542969 37.378906 282.175781 36.28125 284.019531 35.476563 C 285.867188 34.667969 287.839844 34.265625 289.917969 34.265625 C 291.992188 34.265625 293.972656 34.667969 295.8125 35.476563 C 297.660156 36.28125 299.273438 37.378906 300.636719 38.734375 C 301.980469 40.089844 303.074219 41.699219 303.886719 43.542969 C 305.519531 47.230469 305.519531 51.636719 303.886719 55.324219 M 307.796875 31.628906 C 305.554688 29.351563 302.863281 27.53125 299.804688 26.210938 C 296.765625 24.890625 293.4375 24.230469 289.917969 24.230469 C 286.394531 24.230469 283.074219 24.890625 280.03125 26.210938 C 276.972656 27.535156 274.28125 29.355469 272.019531 31.628906 C 269.777344 33.890625 267.964844 36.582031 266.640625 39.640625 C 265.308594 42.671875 264.644531 45.976563 264.644531 49.476563 C 264.644531 52.976563 265.308594 56.292969 266.640625 59.324219 C 267.964844 62.371094 269.777344 65.050781 272.019531 67.285156 C 274.28125 69.523438 276.972656 71.324219 280.03125 72.648438 C 283.074219 73.964844 286.394531 74.636719 289.917969 74.636719 C 293.425781 74.636719 296.765625 73.964844 299.804688 72.648438 C 302.863281 71.324219 305.554688 69.523438 307.8125 67.285156 C 310.050781 65.039063 311.863281 62.371094 313.195313 59.324219 C 314.527344 56.28125 315.1875 52.976563 315.1875 49.476563 C 315.1875 45.976563 314.527344 42.671875 313.195313 39.640625 C 311.863281 36.59375 310.050781 33.890625 307.796875 31.628906 "/>
<path style=" stroke:none;fill-rule:nonzero;fill:rgb(88.999939%,13.699341%,15.699768%);fill-opacity:1;" d="M 111.15625 177.953125 C 83.726563 177.953125 61.496094 200.09375 61.496094 227.378906 C 61.496094 254.6875 83.726563 276.816406 111.15625 276.816406 C 138.570313 276.816406 160.804688 254.6875 160.804688 227.378906 C 160.804688 200.09375 138.570313 177.953125 111.15625 177.953125 "/>
<path style=" stroke:none;fill-rule:nonzero;fill:rgb(100%,100%,100%);fill-opacity:1;" d="M 125.128906 233.277344 C 124.316406 235.113281 123.226563 236.734375 121.859375 238.085938 C 120.507813 239.441406 118.882813 240.53125 117.035156 241.34375 C 115.214844 242.144531 113.214844 242.558594 111.15625 242.558594 C 109.078125 242.566406 107.085938 242.144531 105.246094 241.34375 C 103.414063 240.53125 101.785156 239.441406 100.421875 238.085938 C 99.082031 236.726563 97.980469 235.105469 97.167969 233.277344 C 96.367188 231.433594 95.953125 229.449219 95.953125 227.378906 C 95.953125 225.3125 96.367188 223.332031 97.167969 221.496094 C 97.980469 219.660156 99.082031 218.046875 100.421875 216.679688 C 101.785156 215.320313 103.414063 214.230469 105.246094 213.433594 C 107.085938 212.621094 109.078125 212.214844 111.15625 212.214844 C 113.214844 212.214844 115.214844 212.621094 117.035156 213.417969 C 118.882813 214.230469 120.507813 215.335938 121.859375 216.679688 C 123.226563 218.039063 124.316406 219.660156 125.128906 221.496094 C 126.742188 225.179688 126.742188 229.582031 125.128906 233.277344 M 129.035156 209.578125 C 126.777344 207.304688 124.085938 205.484375 121.046875 204.171875 C 118.003906 202.855469 114.664063 202.175781 111.15625 202.175781 C 107.632813 202.175781 104.296875 202.855469 101.253906 204.171875 C 98.195313 205.484375 95.507813 207.304688 93.261719 209.578125 C 91.019531 211.847656 89.191406 214.539063 87.882813 217.585938 C 86.550781 220.617188 85.867188 223.933594 85.867188 227.429688 C 85.867188 230.921875 86.550781 234.238281 87.859375 237.273438 C 89.191406 240.324219 91.003906 242.992188 93.261719 245.234375 C 95.507813 247.480469 98.195313 249.28125 101.253906 250.601563 C 104.316406 251.914063 107.632813 252.589844 111.140625 252.589844 C 114.664063 252.589844 117.984375 251.914063 121.046875 250.601563 C 124.105469 249.28125 126.796875 247.480469 129.035156 245.234375 C 131.296875 242.992188 133.089844 240.324219 134.4375 237.273438 C 135.746094 234.238281 136.429688 230.929688 136.429688 227.429688 C 136.429688 223.933594 135.746094 220.617188 134.4375 217.585938 C 133.089844 214.539063 131.28125 211.847656 129.035156 209.578125 "/>
<path style=" stroke:none;fill-rule:nonzero;fill:rgb(88.999939%,13.699341%,15.699768%);fill-opacity:1;" d="M 200.527344 177.953125 C 173.113281 177.953125 150.867188 200.09375 150.867188 227.378906 C 150.867188 254.6875 173.113281 276.816406 200.527344 276.816406 C 227.964844 276.816406 250.195313 254.6875 250.195313 227.378906 C 250.195313 200.09375 227.964844 177.953125 200.527344 177.953125 "/>
<path style=" stroke:none;fill-rule:nonzero;fill:rgb(100%,100%,100%);fill-opacity:1;" d="M 214.5 233.277344 C 213.710938 235.113281 212.605469 236.734375 211.25 238.085938 C 209.894531 239.441406 208.269531 240.53125 206.421875 241.34375 C 204.578125 242.144531 202.601563 242.558594 200.527344 242.558594 C 198.46875 242.566406 196.472656 242.144531 194.636719 241.34375 C 192.804688 240.53125 191.171875 239.441406 189.808594 238.085938 C 188.464844 236.726563 187.371094 235.105469 186.554688 233.277344 C 185.742188 231.433594 185.339844 229.449219 185.339844 227.378906 C 185.339844 225.3125 185.742188 223.332031 186.554688 221.496094 C 187.371094 219.660156 188.464844 218.046875 189.808594 216.679688 C 191.171875 215.320313 192.804688 214.230469 194.636719 213.433594 C 196.472656 212.621094 198.46875 212.214844 200.527344 212.214844 C 202.601563 212.214844 204.578125 212.621094 206.421875 213.417969 C 208.269531 214.230469 209.894531 215.335938 211.25 216.679688 C 212.605469 218.039063 213.710938 219.660156 214.5 221.496094 C 216.128906 225.179688 216.128906 229.582031 214.5 233.277344 M 218.410156 209.578125 C 216.167969 207.304688 213.476563 205.484375 210.433594 204.171875 C 207.375 202.855469 204.054688 202.175781 200.527344 202.175781 C 197.019531 202.175781 193.6875 202.855469 190.644531 204.171875 C 187.585938 205.484375 184.890625 207.304688 182.652344 209.578125 C 180.386719 211.847656 178.578125 214.539063 177.25 217.585938 C 175.941406 220.617188 175.257813 223.933594 175.257813 227.429688 C 175.257813 230.921875 175.941406 234.238281 177.25 237.273438 C 178.578125 240.324219 180.386719 242.992188 182.652344 245.234375 C 184.890625 247.480469 187.585938 249.28125 190.644531 250.601563 C 193.703125 251.914063 197.019531 252.589844 200.527344 252.589844 C 204.054688 252.589844 207.375 251.914063 210.433594 250.601563 C 213.476563 249.28125 216.167969 247.480469 218.425781 245.234375 C 220.671875 242.992188 222.480469 240.324219 223.808594 237.273438 C 225.136719 234.238281 225.800781 230.929688 225.800781 227.429688 C 225.800781 223.933594 225.136719 220.617188 223.808594 217.585938 C 222.480469 214.539063 220.671875 211.847656 218.410156 209.578125 "/>
<path style=" stroke:none;fill-rule:nonzero;fill:rgb(88.999939%,13.699341%,15.699768%);fill-opacity:1;" d="M 289.917969 177.953125 C 262.484375 177.953125 240.253906 200.09375 240.253906 227.378906 C 240.253906 254.679688 262.484375 276.816406 289.917969 276.816406 C 317.351563 276.816406 339.5625 254.679688 339.5625 227.378906 C 339.5625 200.09375 317.351563 177.953125 289.917969 177.953125 "/>
<path style=" stroke:none;fill-rule:nonzero;fill:rgb(88.999939%,13.699341%,15.699768%);fill-opacity:1;" d="M 111.15625 0.00390625 C 83.726563 0.00390625 61.496094 22.132813 61.496094 49.429688 C 61.496094 76.734375 83.726563 98.867188 111.15625 98.867188 C 138.570313 98.867188 160.804688 76.734375 160.804688 49.429688 C 160.804688 22.132813 138.570313 0.00390625 111.15625 0.00390625 "/>
<path style=" stroke:none;fill-rule:nonzero;fill:rgb(88.999939%,13.699341%,15.699768%);fill-opacity:1;" d="M 111.140625 88.980469 C 83.726563 88.980469 61.496094 111.109375 61.496094 138.410156 C 61.496094 165.703125 83.726563 187.835938 111.140625 187.835938 C 138.574219 187.835938 160.804688 165.703125 160.804688 138.410156 C 160.804688 111.109375 138.574219 88.980469 111.140625 88.980469 "/>
<path style=" stroke:none;fill-rule:nonzero;fill:rgb(100%,100%,100%);fill-opacity:1;" d="M 121.9375 127.542969 C 123.289063 128.894531 124.386719 130.503906 125.199219 132.335938 C 125.644531 133.367188 125.960938 134.464844 126.160156 135.574219 L 136.359375 135.574219 C 136.101563 133.050781 135.480469 130.625 134.503906 128.359375 C 133.171875 125.320313 131.347656 122.644531 129.101563 120.402344 C 126.84375 118.164063 124.164063 116.363281 121.109375 115.039063 C 118.050781 113.71875 114.730469 113.042969 111.203125 113.042969 C 107.703125 113.042969 104.359375 113.699219 101.316406 114.988281 C 98.265625 116.28125 95.558594 118.074219 93.277344 120.316406 C 91.003906 122.554688 89.191406 125.230469 87.898438 128.273438 C 86.601563 131.300781 85.949219 134.644531 85.949219 138.210938 L 85.949219 162.097656 L 96.023438 162.097656 L 96.023438 137.515625 L 96.054688 137.515625 C 96.140625 135.707031 96.519531 133.96875 97.234375 132.335938 C 98.050781 130.503906 99.148438 128.894531 100.511719 127.542969 C 101.855469 126.195313 103.464844 125.097656 105.3125 124.292969 C 108.996094 122.6875 113.421875 122.6875 117.125 124.292969 C 118.964844 125.097656 120.578125 126.195313 121.9375 127.542969 "/>
<path style=" stroke:none;fill-rule:nonzero;fill:rgb(88.999939%,13.699341%,15.699768%);fill-opacity:1;" d="M 200.527344 88.980469 C 173.113281 88.980469 150.867188 111.109375 150.867188 138.410156 C 150.867188 165.703125 173.113281 187.835938 200.527344 187.835938 C 227.964844 187.835938 250.195313 165.703125 250.195313 138.410156 C 250.195313 111.109375 227.964844 88.980469 200.527344 88.980469 "/>
<path style=" stroke:none;fill-rule:nonzero;fill:rgb(100%,100%,100%);fill-opacity:1;" d="M 187.117188 129.914063 L 187.535156 129.238281 C 189.996094 125.234375 194.382813 123.097656 200.5625 122.914063 L 200.589844 122.914063 C 206.660156 122.976563 210.976563 125.109375 213.453125 129.246094 L 213.851563 129.914063 Z M 223.953125 129.113281 C 222.738281 126.007813 221.046875 123.246094 218.890625 120.878906 C 216.730469 118.515625 214.066406 116.609375 210.996094 115.195313 C 207.902344 113.789063 204.390625 113.074219 200.492188 113.074219 C 196.976563 113.074219 193.648438 113.738281 190.59375 115.058594 C 187.535156 116.378906 184.847656 118.183594 182.585938 120.421875 C 180.324219 122.664063 178.515625 125.332031 177.203125 128.371094 C 175.886719 131.414063 175.222656 134.71875 175.222656 138.226563 C 175.222656 141.726563 175.886719 145.039063 177.203125 148.078125 C 178.515625 151.109375 180.324219 153.789063 182.585938 156.03125 C 184.847656 158.269531 187.535156 160.074219 190.59375 161.390625 C 193.648438 162.71875 196.976563 163.386719 200.492188 163.386719 C 203.070313 163.386719 205.695313 163.023438 208.269531 162.316406 C 210.828125 161.613281 213.238281 160.476563 215.46875 158.945313 C 217.675781 157.414063 219.671875 155.394531 221.394531 152.9375 C 223.027344 150.617188 224.390625 147.777344 225.414063 144.503906 L 214.316406 144.503906 C 213.207031 147.144531 211.484375 149.28125 209.171875 150.871094 C 206.765625 152.519531 203.851563 153.351563 200.492188 153.351563 C 198.484375 153.351563 196.554688 152.980469 194.75 152.234375 C 192.9375 151.496094 191.324219 150.476563 189.976563 149.183594 C 188.617188 147.898438 187.503906 146.367188 186.652344 144.625 C 185.808594 142.882813 185.359375 140.996094 185.296875 138.992188 L 185.277344 138.53125 L 225.84375 138.53125 C 225.730469 135.246094 225.097656 132.085938 223.953125 129.113281 "/>
<g clip-path="url(#clip1)" clip-rule="nonzero">
<path style=" stroke:none;fill-rule:nonzero;fill:rgb(88.999939%,13.699341%,15.699768%);fill-opacity:1;" d="M 31.335938 352.1875 C 14.027344 352.1875 0 366.234375 0 383.558594 C 0 400.878906 14.027344 414.925781 31.335938 414.925781 C 48.632813 414.925781 62.667969 400.878906 62.667969 383.558594 C 62.667969 366.234375 48.632813 352.1875 31.335938 352.1875 "/>
</g>
<path style=" stroke:none;fill-rule:nonzero;fill:rgb(100%,100%,100%);fill-opacity:1;" d="M 40.152344 387.296875 C 39.636719 388.464844 38.953125 389.488281 38.089844 390.34375 C 37.242188 391.207031 36.214844 391.90625 35.058594 392.414063 C 33.894531 392.929688 32.644531 393.191406 31.335938 393.191406 C 30.023438 393.191406 28.777344 392.929688 27.609375 392.414063 C 26.449219 391.90625 25.425781 391.210938 24.574219 390.347656 C 23.714844 389.488281 23.023438 388.457031 22.511719 387.296875 C 22 386.128906 21.746094 384.871094 21.746094 383.558594 C 21.746094 382.246094 22 380.988281 22.511719 379.820313 C 23.023438 378.652344 23.714844 377.628906 24.574219 376.769531 C 25.425781 375.910156 26.449219 375.210938 27.609375 374.703125 C 28.777344 374.1875 30.023438 373.925781 31.335938 373.925781 C 32.644531 373.925781 33.894531 374.1875 35.058594 374.703125 C 36.214844 375.210938 37.242188 375.910156 38.089844 376.769531 C 38.953125 377.625 39.636719 378.652344 40.152344 379.820313 C 41.171875 382.160156 41.175781 384.953125 40.152344 387.296875 M 42.617188 372.257813 C 41.203125 370.816406 39.5 369.660156 37.574219 368.828125 C 35.652344 367.992188 33.550781 367.5625 31.335938 367.5625 C 29.113281 367.5625 27.019531 367.992188 25.09375 368.828125 C 23.164063 369.660156 21.46875 370.816406 20.046875 372.257813 C 18.628906 373.703125 17.480469 375.40625 16.652344 377.339844 C 15.808594 379.265625 15.386719 381.367188 15.386719 383.585938 C 15.386719 385.804688 15.808594 387.90625 16.652344 389.832031 C 17.480469 391.773438 18.628906 393.464844 20.046875 394.886719 C 21.46875 396.304688 23.164063 397.453125 25.09375 398.292969 C 27.019531 399.128906 29.113281 399.554688 31.328125 399.554688 C 33.550781 399.554688 35.648438 399.128906 37.574219 398.292969 C 39.503906 397.453125 41.203125 396.304688 42.617188 394.886719 C 44.039063 393.464844 45.179688 391.765625 46.019531 389.832031 C 46.855469 387.90625 47.28125 385.808594 47.28125 383.585938 C 47.28125 381.367188 46.855469 379.265625 46.019531 377.339844 C 45.179688 375.40625 44.035156 373.703125 42.617188 372.257813 "/>
<g clip-path="url(#clip2)" clip-rule="nonzero">
<path style=" stroke:none;fill-rule:nonzero;fill:rgb(88.999939%,13.699341%,15.699768%);fill-opacity:1;" d="M 87.734375 352.1875 C 70.425781 352.1875 56.398438 366.234375 56.398438 383.558594 C 56.398438 400.878906 70.425781 414.925781 87.734375 414.925781 C 105.035156 414.925781 119.066406 400.878906 119.066406 383.558594 C 119.066406 366.234375 105.035156 352.1875 87.734375 352.1875 "/>
</g>
<path style=" stroke:none;fill-rule:nonzero;fill:rgb(100%,100%,100%);fill-opacity:1;" d="M 96.546875 387.296875 C 96.042969 388.464844 95.347656 389.488281 94.492188 390.34375 C 93.636719 391.207031 92.617188 391.90625 91.453125 392.414063 C 90.289063 392.929688 89.039063 393.191406 87.730469 393.191406 C 86.425781 393.191406 85.171875 392.929688 84.011719 392.414063 C 82.847656 391.90625 81.832031 391.210938 80.96875 390.347656 C 80.109375 389.488281 79.421875 388.457031 78.910156 387.296875 C 78.402344 386.128906 78.148438 384.871094 78.148438 383.558594 C 78.148438 382.246094 78.402344 380.988281 78.910156 379.820313 C 79.421875 378.652344 80.109375 377.628906 80.96875 376.769531 C 81.832031 375.910156 82.847656 375.210938 84.011719 374.703125 C 85.171875 374.1875 86.425781 373.925781 87.730469 373.925781 C 89.039063 373.925781 90.289063 374.1875 91.453125 374.703125 C 92.617188 375.210938 93.636719 375.910156 94.492188 376.769531 C 95.347656 377.625 96.042969 378.652344 96.546875 379.820313 C 97.570313 382.160156 97.574219 384.953125 96.546875 387.296875 M 99.019531 372.257813 C 97.59375 370.816406 95.894531 369.660156 93.96875 368.828125 C 92.054688 367.992188 89.953125 367.5625 87.730469 367.5625 C 85.515625 367.5625 83.414063 367.992188 81.492188 368.828125 C 79.558594 369.660156 77.871094 370.816406 76.449219 372.257813 C 75.027344 373.703125 73.882813 375.40625 73.046875 377.339844 C 72.210938 379.265625 71.785156 381.367188 71.785156 383.585938 C 71.785156 385.804688 72.210938 387.90625 73.046875 389.832031 C 73.882813 391.773438 75.019531 393.464844 76.449219 394.886719 C 77.863281 396.304688 79.558594 397.453125 81.492188 398.292969 C 83.417969 399.128906 85.515625 399.554688 87.726563 399.554688 C 89.949219 399.554688 92.054688 399.128906 93.96875 398.292969 C 95.898438 397.453125 97.601563 396.304688 99.019531 394.886719 C 100.441406 393.464844 101.578125 391.765625 102.421875 389.832031 C 103.253906 387.90625 103.675781 385.808594 103.675781 383.585938 C 103.675781 381.367188 103.253906 379.265625 102.421875 377.339844 C 101.578125 375.40625 100.441406 373.703125 99.019531 372.257813 "/>
<g clip-path="url(#clip3)" clip-rule="nonzero">
<path style=" stroke:none;fill-rule:nonzero;fill:rgb(88.999939%,13.699341%,15.699768%);fill-opacity:1;" d="M 313.324219 352.1875 C 296.019531 352.1875 281.988281 366.234375 281.988281 383.558594 C 281.988281 400.878906 296.019531 414.925781 313.324219 414.925781 C 330.625 414.925781 344.65625 400.878906 344.65625 383.558594 C 344.65625 366.234375 330.625 352.1875 313.324219 352.1875 "/>
</g>
<path style=" stroke:none;fill-rule:nonzero;fill:rgb(100%,100%,100%);fill-opacity:1;" d="M 322.148438 387.296875 C 321.636719 388.464844 320.9375 389.488281 320.089844 390.34375 C 319.230469 391.207031 318.210938 391.90625 317.050781 392.414063 C 315.886719 392.929688 314.632813 393.191406 313.324219 393.191406 C 312.019531 393.191406 310.769531 392.929688 309.601563 392.414063 C 308.4375 391.90625 307.421875 391.210938 306.5625 390.347656 C 305.707031 389.488281 305.015625 388.457031 304.511719 387.296875 C 303.996094 386.128906 303.738281 384.871094 303.738281 383.558594 C 303.738281 382.246094 303.996094 380.988281 304.511719 379.820313 C 305.015625 378.652344 305.707031 377.628906 306.5625 376.769531 C 307.421875 375.910156 308.4375 375.210938 309.601563 374.703125 C 310.765625 374.1875 312.019531 373.925781 313.324219 373.925781 C 314.640625 373.925781 315.886719 374.1875 317.050781 374.703125 C 318.210938 375.210938 319.230469 375.910156 320.089844 376.769531 C 320.9375 377.625 321.636719 378.652344 322.148438 379.820313 C 323.164063 382.160156 323.164063 384.953125 322.148438 387.296875 M 324.609375 372.257813 C 323.1875 370.816406 321.492188 369.660156 319.570313 368.828125 C 317.652344 367.992188 315.550781 367.5625 313.324219 367.5625 C 311.109375 367.5625 309.007813 367.992188 307.089844 368.828125 C 305.15625 369.660156 303.464844 370.816406 302.035156 372.257813 C 300.621094 373.703125 299.480469 375.40625 298.644531 377.339844 C 297.808594 379.265625 297.382813 381.367188 297.382813 383.585938 C 297.382813 385.804688 297.808594 387.90625 298.636719 389.832031 C 299.480469 391.773438 300.621094 393.464844 302.035156 394.886719 C 303.464844 396.304688 305.15625 397.453125 307.089844 398.292969 C 309.007813 399.128906 311.109375 399.554688 313.324219 399.554688 C 315.546875 399.554688 317.648438 399.128906 319.570313 398.292969 C 321.492188 397.453125 323.191406 396.304688 324.613281 394.886719 C 326.035156 393.464844 327.179688 391.765625 328.011719 389.832031 C 328.851563 387.90625 329.273438 385.808594 329.273438 383.585938 C 329.273438 381.367188 328.851563 379.265625 328.011719 377.339844 C 327.179688 375.40625 326.027344 373.703125 324.609375 372.257813 "/>
<g clip-path="url(#clip4)" clip-rule="nonzero">
<path style=" stroke:none;fill-rule:nonzero;fill:rgb(88.999939%,13.699341%,15.699768%);fill-opacity:1;" d="M 369.726563 352.1875 C 352.417969 352.1875 338.394531 366.234375 338.394531 383.558594 C 338.394531 400.878906 352.417969 414.925781 369.726563 414.925781 C 387.027344 414.925781 401.058594 400.878906 401.058594 383.558594 C 401.058594 366.234375 387.027344 352.1875 369.726563 352.1875 "/>
</g>
<path style=" stroke:none;fill-rule:nonzero;fill:rgb(100%,100%,100%);fill-opacity:1;" d="M 378.539063 387.296875 C 378.03125 388.464844 377.34375 389.488281 376.484375 390.34375 C 375.636719 391.207031 374.609375 391.90625 373.445313 392.414063 C 372.285156 392.929688 371.027344 393.191406 369.726563 393.191406 C 368.417969 393.191406 367.167969 392.929688 366.003906 392.414063 C 364.84375 391.90625 363.816406 391.210938 362.964844 390.347656 C 362.105469 389.488281 361.414063 388.457031 360.90625 387.296875 C 360.394531 386.128906 360.132813 384.871094 360.132813 383.558594 C 360.132813 382.246094 360.394531 380.988281 360.90625 379.820313 C 361.414063 378.652344 362.105469 377.628906 362.964844 376.769531 C 363.816406 375.910156 364.84375 375.210938 366.003906 374.703125 C 367.167969 374.1875 368.417969 373.925781 369.726563 373.925781 C 371.027344 373.925781 372.285156 374.1875 373.445313 374.703125 C 374.609375 375.210938 375.636719 375.910156 376.484375 376.769531 C 377.34375 377.625 378.03125 378.652344 378.539063 379.820313 C 379.5625 382.160156 379.566406 384.953125 378.539063 387.296875 M 381.007813 372.257813 C 379.585938 370.816406 377.894531 369.660156 375.964844 368.828125 C 374.039063 367.992188 371.941406 367.5625 369.726563 367.5625 C 367.503906 367.5625 365.40625 367.992188 363.484375 368.828125 C 361.554688 369.660156 359.863281 370.816406 358.441406 372.257813 C 357.015625 373.703125 355.875 375.40625 355.039063 377.339844 C 354.199219 379.265625 353.78125 381.367188 353.78125 383.585938 C 353.78125 385.804688 354.199219 387.90625 355.039063 389.832031 C 355.875 391.773438 357.015625 393.464844 358.441406 394.886719 C 359.855469 396.304688 361.554688 397.453125 363.484375 398.292969 C 365.40625 399.128906 367.503906 399.554688 369.726563 399.554688 C 371.941406 399.554688 374.039063 399.128906 375.964844 398.292969 C 377.894531 397.453125 379.589844 396.304688 381.015625 394.886719 C 382.429688 393.464844 383.574219 391.765625 384.414063 389.832031 C 385.25 387.90625 385.675781 385.808594 385.675781 383.585938 C 385.675781 381.367188 385.25 379.265625 384.414063 377.339844 C 383.574219 375.40625 382.429688 373.703125 381.007813 372.257813 "/>
<g clip-path="url(#clip5)" clip-rule="nonzero">
<path style=" stroke:none;fill-rule:nonzero;fill:rgb(88.999939%,13.699341%,15.699768%);fill-opacity:1;" d="M 144.128906 352.1875 C 126.824219 352.1875 112.800781 366.234375 112.800781 383.558594 C 112.800781 400.878906 126.824219 414.929688 144.128906 414.929688 C 161.4375 414.929688 175.460938 400.878906 175.460938 383.558594 C 175.460938 366.234375 161.4375 352.1875 144.128906 352.1875 "/>
</g>
<path style=" stroke:none;fill-rule:nonzero;fill:rgb(100%,100%,100%);fill-opacity:1;" d="M 150.9375 376.660156 C 151.789063 377.519531 152.480469 378.546875 152.992188 379.707031 C 153.277344 380.363281 153.476563 381.050781 153.605469 381.761719 L 160.03125 381.761719 C 159.871094 380.152344 159.480469 378.617188 158.859375 377.183594 C 158.023438 375.253906 156.878906 373.554688 155.460938 372.132813 C 154.035156 370.714844 152.34375 369.570313 150.414063 368.726563 C 148.488281 367.890625 146.390625 367.46875 144.167969 367.46875 C 141.953125 367.46875 139.851563 367.882813 137.925781 368.699219 C 136.007813 369.515625 134.296875 370.652344 132.859375 372.070313 C 131.414063 373.496094 130.273438 375.195313 129.457031 377.125 C 128.636719 379.050781 128.230469 381.175781 128.230469 383.433594 L 128.230469 398.597656 L 134.582031 398.597656 L 134.582031 382.992188 L 134.605469 382.992188 C 134.65625 381.84375 134.898438 380.734375 135.355469 379.707031 C 135.867188 378.546875 136.554688 377.519531 137.414063 376.660156 C 138.265625 375.808594 139.292969 375.113281 140.449219 374.597656 C 142.777344 373.582031 145.566406 373.582031 147.894531 374.597656 C 149.050781 375.113281 150.074219 375.808594 150.9375 376.660156 "/>
<g clip-path="url(#clip6)" clip-rule="nonzero">
<path style=" stroke:none;fill-rule:nonzero;fill:rgb(88.999939%,13.699341%,15.699768%);fill-opacity:1;" d="M 200.53125 352.1875 C 183.226563 352.1875 169.199219 366.234375 169.199219 383.558594 C 169.199219 400.886719 183.226563 414.929688 200.53125 414.929688 C 217.835938 414.929688 231.859375 400.886719 231.859375 383.558594 C 231.859375 366.234375 217.835938 352.1875 200.53125 352.1875 "/>
</g>
<path style=" stroke:none;fill-rule:nonzero;fill:rgb(100%,100%,100%);fill-opacity:1;" d="M 192.066406 378.171875 L 192.328125 377.742188 C 193.886719 375.195313 196.65625 373.851563 200.554688 373.722656 L 200.566406 373.722656 C 204.390625 373.761719 207.121094 375.113281 208.679688 377.746094 L 208.933594 378.171875 Z M 215.308594 377.65625 C 214.546875 375.691406 213.46875 373.9375 212.105469 372.433594 C 210.746094 370.941406 209.070313 369.722656 207.128906 368.828125 C 205.179688 367.933594 202.953125 367.476563 200.503906 367.476563 C 198.28125 367.476563 196.191406 367.902344 194.257813 368.742188 C 192.332031 369.578125 190.628906 370.722656 189.203125 372.144531 C 187.773438 373.570313 186.636719 375.265625 185.804688 377.191406 C 184.976563 379.117188 184.554688 381.222656 184.554688 383.4375 C 184.554688 385.664063 184.976563 387.769531 185.800781 389.691406 C 186.636719 391.625 187.78125 393.316406 189.203125 394.742188 C 190.628906 396.167969 192.332031 397.308594 194.257813 398.148438 C 196.191406 398.984375 198.28125 399.410156 200.503906 399.410156 C 202.136719 399.410156 203.789063 399.183594 205.40625 398.726563 C 207.023438 398.285156 208.550781 397.566406 209.941406 396.59375 C 211.347656 395.621094 212.605469 394.34375 213.695313 392.777344 C 214.730469 391.300781 215.574219 389.511719 216.234375 387.429688 L 209.226563 387.429688 C 208.523438 389.105469 207.433594 390.460938 205.96875 391.472656 C 204.460938 392.515625 202.617188 393.042969 200.503906 393.042969 C 199.238281 393.042969 198.019531 392.804688 196.871094 392.335938 C 195.730469 391.867188 194.722656 391.214844 193.867188 390.394531 C 193.007813 389.578125 192.300781 388.609375 191.773438 387.507813 C 191.238281 386.402344 190.953125 385.195313 190.914063 383.929688 L 190.90625 383.640625 L 216.503906 383.640625 C 216.4375 381.550781 216.035156 379.546875 215.308594 377.65625 "/>
<g clip-path="url(#clip7)" clip-rule="nonzero">
<path style=" stroke:none;fill-rule:nonzero;fill:rgb(88.999939%,13.699341%,15.699768%);fill-opacity:1;" d="M 256.929688 352.1875 C 260.273438 352.1875 263.492188 352.722656 266.511719 353.691406 L 266.511719 371.246094 L 266.039063 370.804688 C 265.542969 370.34375 264.945313 369.902344 264.246094 369.503906 C 263.550781 369.09375 262.789063 368.726563 261.988281 368.414063 C 261.191406 368.105469 260.347656 367.847656 259.492188 367.652344 C 258.640625 367.457031 257.78125 367.359375 256.929688 367.359375 C 254.714844 367.359375 252.617188 367.785156 250.683594 368.621094 C 248.761719 369.457031 247.0625 370.601563 245.648438 372.023438 C 244.226563 373.449219 243.078125 375.148438 242.242188 377.074219 C 241.402344 379.003906 240.980469 381.109375 240.980469 383.324219 C 240.980469 385.542969 241.402344 387.644531 242.242188 389.578125 C 243.078125 391.507813 244.226563 393.203125 245.648438 394.621094 C 247.0625 396.046875 248.761719 397.195313 250.683594 398.03125 C 252.609375 398.867188 254.714844 399.289063 256.929688 399.289063 C 259.144531 399.289063 261.25 398.875 263.171875 398.058594 C 265.101563 397.238281 266.8125 396.105469 268.246094 394.675781 C 269.691406 393.257813 270.824219 391.5625 271.644531 389.632813 C 272.460938 387.707031 272.875 385.585938 272.875 383.324219 L 272.875 356.558594 C 282.082031 362.027344 288.261719 372.070313 288.261719 383.558594 C 288.261719 400.886719 274.230469 414.929688 256.929688 414.929688 C 239.628906 414.929688 225.59375 400.886719 225.59375 383.558594 C 225.59375 366.234375 239.628906 352.1875 256.929688 352.1875 "/>
</g>
<path style=" stroke:none;fill-rule:nonzero;fill:rgb(88.999939%,13.699341%,15.699768%);fill-opacity:1;" d="M 263.6875 390.09375 C 262.828125 390.953125 261.8125 391.640625 260.648438 392.152344 C 259.496094 392.667969 258.238281 392.921875 256.929688 392.921875 C 255.621094 392.921875 254.367188 392.667969 253.203125 392.152344 C 252.046875 391.640625 251.019531 390.953125 250.164063 390.09375 C 249.308594 389.238281 248.617188 388.210938 248.105469 387.054688 C 247.597656 385.890625 247.335938 384.632813 247.335938 383.320313 C 247.335938 382.019531 247.597656 380.769531 248.105469 379.59375 C 248.617188 378.433594 249.308594 377.414063 250.164063 376.550781 C 251.019531 375.703125 252.046875 375.007813 253.203125 374.496094 C 255.535156 373.472656 258.316406 373.472656 260.648438 374.496094 C 261.8125 375.007813 262.835938 375.703125 263.6875 376.550781 C 264.550781 377.414063 265.234375 378.433594 265.746094 379.59375 C 266.257813 380.761719 266.515625 382.015625 266.515625 383.320313 C 266.515625 384.636719 266.257813 385.890625 265.746094 387.054688 C 265.234375 388.210938 264.550781 389.238281 263.6875 390.09375 "/>
<path style=" stroke:none;fill-rule:nonzero;fill:rgb(100%,100%,100%);fill-opacity:1;" d="M 266.515625 383.324219 C 266.515625 384.628906 266.257813 385.886719 265.75 387.054688 C 265.238281 388.210938 264.550781 389.238281 263.6875 390.09375 C 262.828125 390.953125 261.8125 391.640625 260.652344 392.152344 C 259.496094 392.664063 258.230469 392.921875 256.929688 392.921875 C 255.613281 392.921875 254.371094 392.664063 253.210938 392.152344 C 252.046875 391.640625 251.019531 390.953125 250.171875 390.09375 C 249.308594 389.238281 248.617188 388.210938 248.109375 387.054688 C 247.597656 385.886719 247.339844 384.628906 247.339844 383.324219 C 247.339844 382.019531 247.597656 380.765625 248.109375 379.59375 C 248.617188 378.433594 249.308594 377.414063 250.171875 376.558594 C 251.019531 375.703125 252.046875 375.007813 253.210938 374.492188 C 255.535156 373.46875 258.320313 373.46875 260.652344 374.492188 C 261.8125 375.007813 262.835938 375.703125 263.6875 376.558594 C 264.550781 377.414063 265.238281 378.433594 265.75 379.59375 C 266.257813 380.761719 266.515625 382.015625 266.515625 383.324219 M 272.875 383.324219 L 272.875 356.558594 C 270.886719 355.378906 268.761719 354.410156 266.515625 353.691406 L 266.515625 371.246094 L 266.039063 370.804688 C 265.542969 370.34375 264.945313 369.90625 264.246094 369.503906 C 263.546875 369.09375 262.789063 368.730469 261.988281 368.417969 C 261.1875 368.101563 260.347656 367.847656 259.496094 367.652344 C 258.640625 367.453125 257.78125 367.359375 256.929688 367.359375 C 254.714844 367.359375 252.609375 367.785156 250.6875 368.621094 C 248.761719 369.457031 247.0625 370.601563 245.648438 372.023438 C 244.226563 373.449219 243.078125 375.148438 242.242188 377.074219 C 241.402344 379.003906 240.980469 381.105469 240.980469 383.324219 C 240.980469 385.542969 241.402344 387.644531 242.242188 389.578125 C 243.078125 391.503906 244.226563 393.203125 245.648438 394.621094 C 247.0625 396.046875 248.761719 397.195313 250.6875 398.03125 C 252.609375 398.859375 254.714844 399.289063 256.929688 399.289063 C 259.144531 399.289063 261.25 398.875 263.171875 398.058594 C 265.101563 397.238281 266.8125 396.105469 268.246094 394.683594 C 269.683594 393.261719 270.828125 391.558594 271.648438 389.632813 C 272.460938 387.707031 272.875 385.585938 272.875 383.324219 "/>
</g>
</svg>
